<svg width="124" height="125" viewBox="0 0 124 125" fill="none" xmlns="http://www.w3.org/2000/svg">
<path d="M112.471 44.8858C108.589 44.8858 105.436 48.0622 105.436 51.9625C105.436 55.8657 108.589 59.0377 112.471 59.0377C116.34 59.0377 119.489 55.8642 119.489 51.9625C119.489 48.0622 116.338 44.8858 112.471 44.8858ZM11.5437 44.8858C7.66167 44.8858 4.50933 48.0622 4.50933 51.9625C4.50933 55.8657 7.66167 59.0377 11.5437 59.0377C15.4156 59.0377 18.5665 55.8642 18.5665 51.9625C18.5665 48.0622 15.4156 44.8858 11.5437 44.8858ZM91.5767 32.0147C85.8128 32.0147 81.1376 36.7393 81.1376 42.5541C81.1376 48.3573 85.8128 53.0731 91.5767 53.0731C97.342 53.0731 102.032 48.3573 102.032 42.5541C102.032 36.7451 97.342 32.0147 91.5767 32.0147ZM124 96.0622H112.097V73.9775C112.097 70.1833 110.991 66.6609 109.215 63.5893C110.261 63.2811 111.336 63.0616 112.471 63.0616C118.817 63.0616 124 68.2862 124 74.6999V96.0622ZM32.4219 32.0147C26.6536 32.0147 21.9669 36.7393 21.9669 42.5541C21.9669 48.3573 26.6536 53.0731 32.4219 53.0731C38.1714 53.0731 42.8581 48.3573 42.8581 42.5541C42.8581 36.7451 38.1728 32.0147 32.4219 32.0147ZM11.5437 63.0616C12.6786 63.0616 13.7385 63.2796 14.7883 63.5893C12.993 66.6609 11.9057 70.1833 11.9057 73.9775V96.0622H0V74.6999C0 68.2847 5.18565 63.0616 11.5437 63.0616ZM61.9885 10.9723C53.4803 10.9723 46.544 17.9574 46.544 26.543C46.544 35.1271 53.4731 42.1209 61.9885 42.1209C70.5053 42.1209 77.443 35.1271 77.443 26.543C77.4502 17.9559 70.5053 10.9723 61.9885 10.9723ZM108.274 104.281H90.0394V70.679C90.0394 66.0576 88.8296 61.759 86.8741 57.9053C88.3667 57.4604 89.9356 57.145 91.5781 57.145C100.778 57.145 108.274 64.6868 108.274 73.9775V104.281ZM33.9418 70.679V104.281H15.73V73.9775C15.73 64.6955 23.2158 57.145 32.4305 57.145C34.073 57.145 35.6261 57.4604 37.1158 57.9053C35.1589 61.759 33.9418 66.0576 33.9418 70.679ZM37.7647 114.008H86.2151V70.679C86.2151 57.2118 75.3434 46.2596 61.987 46.2596C48.6206 46.2596 37.7647 57.2118 37.7647 70.679V114.008Z" fill="white"/>
</svg>
