<?xml version="1.0" encoding="utf-8"?>
<!-- Generator: Adobe Illustrator 28.0.0, SVG Export Plug-In . SVG Version: 6.00 Build 0)  -->
<svg version="1.1" xmlns="http://www.w3.org/2000/svg" xmlns:xlink="http://www.w3.org/1999/xlink" x="0px" y="0px"
	 viewBox="0 0 32 29.44" enable-background="new 0 0 32 29.44" xml:space="preserve">
<g id="Слой_1" display="none">
	<g id="Слой_3" display="inline">
	</g>
	<g display="inline">
		<g>
			<polygon fill="#FFFFFF" points="125.2,-125.09 117.18,-125.09 -85.18,-125.09 -93.2,-125.09 -85.18,-116.69 -85.18,-116.6 
				-42.15,-71.55 -42.07,-71.55 -17.34,-71.55 -17.34,17.67 16,75.83 49.34,17.67 49.34,-71.55 74.07,-71.55 74.15,-71.55 
				117.18,-116.6 117.18,-116.69 			"/>
			<polygon points="98.88,-113.16 16,-113.16 -66.88,-113.16 -37.33,-82.22 -6.08,-82.22 -6.08,14.95 16,53.78 38.08,15.27 
				38.08,-82.22 69.33,-82.22 			"/>
		</g>
		<g>
			<g>
				<path id="SVGID_00000087370177177660258430000001934221116313943230_" fill="#FFFFFF" d="M-240-210.23l256,449.9l256-449.9
					L-240-210.23L-240-210.23z M16,153.3l-184.96-321.63h369.92L16,153.3z"/>
			</g>
			<g>
				<defs>
					<path id="SVGID_1_" d="M-240-210.23l256,449.9l256-449.9L-240-210.23L-240-210.23z M16,153.3l-184.96-321.63h369.92L16,153.3z"
						/>
				</defs>
				<clipPath id="SVGID_00000143617477064109413010000001389466198208414358_">
					<use xlink:href="#SVGID_1_"  overflow="visible"/>
				</clipPath>
				
					<line clip-path="url(#SVGID_00000143617477064109413010000001389466198208414358_)" fill="none" stroke="#000000" stroke-width="7.4416" stroke-miterlimit="10" x1="16" y1="239.67" x2="16" y2="144.91"/>
			</g>
			<g>
				<defs>
					<path id="SVGID_00000034088268078408455030000010112683976841405358_" d="M-240-210.23l256,449.9l256-449.9L-240-210.23
						L-240-210.23z M16,153.3l-184.96-321.63h369.92L16,153.3z"/>
				</defs>
				<clipPath id="SVGID_00000029015648459395954320000001610733266501887924_">
					<use xlink:href="#SVGID_00000034088268078408455030000010112683976841405358_"  overflow="visible"/>
				</clipPath>
				
					<line clip-path="url(#SVGID_00000029015648459395954320000001610733266501887924_)" fill="none" stroke="#000000" stroke-width="7.4416" stroke-miterlimit="10" x1="-151.14" y1="-157.82" x2="-240" y2="-210.23"/>
			</g>
			<g>
				<defs>
					<path id="SVGID_00000181077245314610550910000015547729929428701846_" d="M-240-210.23l256,449.9l256-449.9L-240-210.23
						L-240-210.23z M16,153.3l-184.96-321.63h369.92L16,153.3z"/>
				</defs>
				<clipPath id="SVGID_00000003810451252595916870000017225252674284055444_">
					<use xlink:href="#SVGID_00000181077245314610550910000015547729929428701846_"  overflow="visible"/>
				</clipPath>
				
					<line clip-path="url(#SVGID_00000003810451252595916870000017225252674284055444_)" fill="none" stroke="#000000" stroke-width="7.4416" stroke-miterlimit="10" x1="193.33" y1="-163.83" x2="272" y2="-210.23"/>
			</g>
		</g>
	</g>
</g>
<g id="Слой_2">
	<g>
		<g>
			<polygon fill="#FFFFFF" points="32,0 30.82,0 1.18,0 0,0 1.18,1.23 1.18,1.24 7.48,7.84 7.49,7.84 11.11,7.84 11.11,20.92 
				16,29.44 20.89,20.92 20.89,7.84 24.51,7.84 24.52,7.84 30.82,1.24 30.82,1.23 			"/>
			<polygon points="28.14,1.75 16,1.75 3.86,1.75 8.19,6.28 12.76,6.28 12.76,20.52 16,26.21 19.24,20.56 19.24,6.28 23.81,6.28 			
				"/>
		</g>
	</g>
</g>
</svg>
