<?xml version="1.0" encoding="utf-8"?>
<!-- Generator: Adobe Illustrator 28.0.0, SVG Export Plug-In . SVG Version: 6.00 Build 0)  -->
<svg version="1.1" id="Слой_1" xmlns="http://www.w3.org/2000/svg" xmlns:xlink="http://www.w3.org/1999/xlink" x="0px" y="0px"
	 viewBox="0 0 192 192" style="enable-background:new 0 0 192 192;" xml:space="preserve">
<style type="text/css">
	.st0{display:none;}
	.st1{fill:url(#SVGID_1_);}
	.st2{fill:#FFFEFF;}
	.st3{fill:url(#SVGID_00000152256602542411626030000002620342526943990954_);}
	.st4{fill:#FFFFFF;}
</style>
<g id="Слой_1_00000147928870174361660650000011225913828835616950_" class="st0">
	
		<image style="display:inline;overflow:visible;opacity:0.57;enable-background:new    ;" width="735" height="441" xlink:href="CE67CE91.jpeg"  transform="matrix(2.5674 0 0 2.5674 -847.7734 -470.1459)">
	</image>
</g>
<g>
	
		<linearGradient id="SVGID_1_" gradientUnits="userSpaceOnUse" x1="25.1" y1="1906.55" x2="101.8" y2="1906.55" gradientTransform="matrix(1 0 0 1 0 -1806)">
		<stop  offset="0" style="stop-color:#FFFFFF"/>
		<stop  offset="0.2033" style="stop-color:#C1C1C1"/>
		<stop  offset="0.4039" style="stop-color:#8B8B8B"/>
		<stop  offset="0.5893" style="stop-color:#616161"/>
		<stop  offset="0.7562" style="stop-color:#434343"/>
		<stop  offset="0.8986" style="stop-color:#313131"/>
		<stop  offset="1" style="stop-color:#2A2A2A"/>
	</linearGradient>
	<polygon class="st1" points="25.1,33.7 46.4,46.1 101.8,141.8 101.8,167.4 	"/>
	<polygon class="st2" points="178.4,33.7 157.1,46.1 101.8,141.8 101.8,167.4 	"/>
	
		<linearGradient id="SVGID_00000110469917458211811240000015792801748166000004_" gradientUnits="userSpaceOnUse" x1="101.75" y1="1852.1425" x2="101.75" y2="1839.6937" gradientTransform="matrix(1 0 0 1 0 -1806)">
		<stop  offset="0" style="stop-color:#383838"/>
		<stop  offset="0.4659" style="stop-color:#2E2E2E"/>
		<stop  offset="1" style="stop-color:#2A2A2A"/>
	</linearGradient>
	<polygon style="fill:url(#SVGID_00000110469917458211811240000015792801748166000004_);" points="46.4,46.1 157.1,46.1 178.4,33.7 
		25.1,33.7 	"/>
	<g id="Слой_2_00000175315330252430998250000017918756018569590461_">
		<polygon class="st4" points="22.7,104.9 22.7,78.4 15.3,78.4 0,62.5 63,62.5 63,65 50.1,78.4 42.7,78.4 42.7,105 32.7,122.2 		"/>
		<polygon class="st4" points="97.2,104.9 97.2,78.4 87,78.4 75,65 76.4,62.5 140.8,62.5 130.4,78.4 117.1,78.4 117.1,105 
			107.1,122.2 		"/>
		<polygon class="st4" points="74,100.7 74,97.3 61.5,118.3 47.6,118.3 47.6,75.4 60.5,62.5 63,62.5 63,86.2 76.4,62.5 77.2,62.5 
			89.9,76.8 89.9,127 		"/>
		<path class="st4" d="M104.8,118.2l34.1-59l26.7,46.7h-16.2l-4.3-7.3l-4.1,7.3h-12.9l-7.2,12.3
			C121.1,118.2,104.8,118.2,104.8,118.2z M141.3,91.8l-2.4-4.1l-2.4,4.1H141.3z"/>
		<polygon class="st4" points="176.7,118.2 176.7,96.1 166.4,96.1 166.4,114.5 150.9,86.4 150.9,75.9 158.7,62.5 166.4,62.5 
			166.4,81 176.7,81 176.7,54 192,80.9 192,118.2 		"/>
		<polygon points="57.5,65.9 32.7,65.9 7.9,65.9 16.7,75.1 26.1,75.1 26.1,104 32.7,115.5 39.3,104.1 39.3,75.1 48.7,75.1 		"/>
		<polygon points="134.6,65.9 109.8,65.9 80.3,65.9 88.5,75.1 100.5,75.1 100.5,104 107.1,115.5 113.8,104.1 113.8,75.1 128.6,75.1 
					"/>
		<polygon points="77.3,67.7 59.6,98.9 59.6,68.2 51,76.8 51,114.9 59.6,114.9 77.3,85 77.3,99.7 86.5,114.9 86.5,78 		"/>
		<polygon points="151.4,102.5 159.8,102.5 138.9,65.9 110.6,114.8 119.1,114.8 126.3,102.5 139.2,102.5 143.3,95.2 130.6,95.2 
			130.6,95.2 138.9,81 		"/>
		<polygon points="180,65.9 180,84.3 163.1,84.3 163.1,65.9 160.7,65.9 154.2,76.9 154.2,85.6 163.1,101.5 163.1,92.8 180,92.8 
			180,114.8 188.6,114.8 188.6,81.8 		"/>
	</g>
</g>
</svg>
