<svg width="39" height="39" viewBox="0 0 39 39" fill="none" xmlns="http://www.w3.org/2000/svg">
<g clip-path="url(#clip0_2300_78)">
<path fill-rule="evenodd" clip-rule="evenodd" d="M0 19.5C0 8.73048 8.73048 0 19.5 0C30.2695 0 39 8.73048 39 19.5C39 30.2695 30.2695 39 19.5 39C8.73048 39 0 30.2695 0 19.5ZM20.5201 25.8993C20.5201 25.8993 20.8955 25.8584 21.0877 25.6557C21.2637 25.4699 21.2576 25.1194 21.2576 25.1194C21.2576 25.1194 21.2342 23.4827 22.0084 23.241C22.7715 23.0033 23.7511 24.8238 24.7908 25.5239C25.5762 26.0531 26.1723 25.9373 26.1723 25.9373L28.9507 25.8993C28.9507 25.8993 30.4034 25.8114 29.7147 24.69C29.6577 24.5981 29.3128 23.8602 27.6495 22.3442C25.9068 20.7575 26.1408 21.0141 28.2385 18.269C29.5163 16.5973 30.027 15.5767 29.8673 15.1404C29.7157 14.7229 28.7757 14.8337 28.7757 14.8337L25.6484 14.8527C25.6484 14.8527 25.4165 14.8218 25.2445 14.9226C25.0767 15.0215 24.9678 15.2522 24.9678 15.2522C24.9678 15.2522 24.4734 16.5453 23.8132 17.6458C22.4205 19.9666 21.864 20.0894 21.6361 19.9457C21.1061 19.6091 21.2383 18.5955 21.2383 17.8755C21.2383 15.6257 21.5863 14.688 20.5618 14.4453C20.222 14.3644 19.9717 14.3115 19.1019 14.3025C17.9859 14.2915 17.0418 14.3065 16.5067 14.5632C16.1506 14.7339 15.8759 15.1153 16.0438 15.1374C16.2503 15.1643 16.7183 15.2612 16.9665 15.5927C17.287 16.0211 17.2758 16.9817 17.2758 16.9817C17.2758 16.9817 17.46 19.6301 16.8455 19.9586C16.4243 20.1843 15.8464 19.7239 14.6043 17.6178C13.9685 16.5394 13.4883 15.3471 13.4883 15.3471C13.4883 15.3471 13.3957 15.1244 13.2299 15.0045C13.0295 14.8597 12.7497 14.8148 12.7497 14.8148L9.77811 14.8337C9.77811 14.8337 9.33148 14.8458 9.16768 15.0364C9.02224 15.2052 9.15647 15.5557 9.15647 15.5557C9.15647 15.5557 11.4831 20.8993 14.118 23.5926C16.5341 26.0611 19.2769 25.8993 19.2769 25.8993H20.5201Z" fill="white"/>
</g>
<defs>
<clipPath id="clip0_2300_78">
<rect width="39" height="39" fill="white"/>
</clipPath>
</defs>
</svg>
