<svg width="45" height="44" viewBox="0 0 45 44" fill="none" xmlns="http://www.w3.org/2000/svg">
<g clip-path="url(#clip0_2300_91)">
<path d="M22.6406 12.2375C17.1562 12.2375 12.7969 16.5 12.7969 21.8625C12.7969 23.7875 13.3594 25.7125 14.4844 27.225L14.625 27.5L14.4844 27.775L13.6406 30.525L16.4531 29.7L16.7344 29.5625L17.0156 29.7C18.7031 30.8 20.5312 31.35 22.6406 31.35C28.125 31.35 32.4844 27.0875 32.4844 21.725C32.4844 16.5 28.125 12.2375 22.6406 12.2375ZM26.8594 28.325C20.9531 28.325 16.0312 23.65 16.0312 17.7375C16.0312 16.5 17.1562 15.4 18.4219 15.4C18.5625 15.4 18.7031 15.4 18.7031 15.4C18.9844 15.4 19.2656 15.5375 19.4062 15.675L20.1094 19.3875L18.7031 20.075C19.5469 22.6875 21.6562 24.8875 24.3281 25.575L25.0312 24.2L28.8281 24.8875C28.9688 25.1625 28.9688 25.3 29.1094 25.575C29.1094 25.7125 29.1094 25.85 29.1094 25.85C29.25 27.225 28.125 28.325 26.8594 28.325Z" fill="white"/>
<path d="M22.5 2.75C11.6719 2.75 2.8125 11.4125 2.8125 22C2.8125 32.5875 11.6719 41.25 22.5 41.25C33.3281 41.25 42.1875 32.5875 42.1875 22C42.1875 11.4125 33.3281 2.75 22.5 2.75ZM22.6406 34.1C20.3906 34.1 18.2812 33.55 16.4531 32.45L11.1094 34.1L9.84375 34.375L10.125 33.275L11.6719 27.9125C8.4375 22 10.4062 14.575 16.4531 11.275C22.5 7.975 30.0937 9.9 33.4687 15.8125C36.8438 21.725 34.875 29.15 28.8281 32.45C27 33.55 24.8906 34.1 22.6406 34.1Z" fill="white"/>
</g>
<defs>
<clipPath id="clip0_2300_91">
<rect width="45" height="44" fill="white"/>
</clipPath>
</defs>
</svg>
